<?xml version="1.0" standalone="no"?>
<!DOCTYPE svg PUBLIC "-//W3C//DTD SVG 20010904//EN"
 "http://www.w3.org/TR/2001/REC-SVG-20010904/DTD/svg10.dtd">
<svg version="1.0" xmlns="http://www.w3.org/2000/svg"
 width="826.000000pt" height="551.000000pt" viewBox="0 0 826.000000 551.000000"
 preserveAspectRatio="xMidYMid meet">

<g transform="translate(0.000000,551.000000) scale(0.100000,-0.100000)"
fill="#000000" stroke="none">
<path d="M0 2781 l0 -2729 35 9 c19 6 40 7 45 4 6 -3 7 1 4 9 -4 10 -1 16 7
16 8 0 28 12 44 28 34 31 82 55 95 47 5 -3 10 1 13 7 3 10 9 10 26 0 26 -15
43 -8 34 15 -5 12 -2 15 8 11 16 -6 56 18 46 28 -7 8 22 39 37 39 15 1 57 25
74 42 7 7 22 13 33 13 21 0 26 15 7 24 -7 3 1 3 17 1 26 -5 33 -1 48 25 13 21
26 30 43 30 14 0 23 -4 19 -9 -3 -5 0 -13 6 -16 12 -8 51 30 41 40 -10 10 28
34 44 28 19 -7 44 15 37 33 -3 9 1 14 13 12 51 -4 76 3 81 22 4 14 11 18 27
15 14 -4 31 3 52 23 17 15 37 26 44 24 7 -3 17 3 22 12 7 12 14 14 28 6 22
-12 31 -13 28 -2 -2 4 4 17 13 30 14 20 22 22 58 16 35 -6 41 -4 41 11 0 14 6
16 30 12 18 -4 30 -2 30 4 0 5 6 9 13 8 24 -4 68 13 81 33 10 14 20 17 40 12
14 -3 26 -10 26 -16 0 -5 5 -6 10 -3 6 4 8 10 5 15 -7 11 22 33 35 25 5 -3 10
-1 10 4 0 6 7 11 16 11 11 0 14 -6 9 -20 -4 -11 -2 -20 4 -20 6 0 11 7 11 15
0 8 7 15 15 15 18 0 20 17 3 22 -9 3 -9 6 0 12 7 4 12 2 12 -3 0 -16 26 -13
40 4 7 9 19 14 27 11 7 -3 13 0 13 6 0 7 13 9 36 5 49 -8 136 3 109 14 -12 4
13 7 60 7 55 0 72 -3 55 -8 l-25 -8 26 -1 c14 -1 29 3 35 8 5 5 68 11 139 13
150 6 140 4 222 44 34 17 59 26 55 20 -3 -6 12 4 34 21 23 18 44 29 48 25 4
-4 6 -1 4 7 -2 8 5 16 14 18 25 6 11 -34 -18 -54 -13 -8 -24 -20 -24 -25 0 -5
10 -2 22 6 28 20 52 20 68 1 11 -13 9 -20 -9 -39 -17 -18 -20 -30 -15 -52 l6
-29 -26 35 c-46 60 -94 74 -161 45 -59 -24 -73 -105 -30 -169 14 -20 24 -42
22 -48 -3 -15 53 -24 213 -33 134 -8 149 -12 194 -58 62 -62 145 -79 272 -56
88 15 94 18 94 44 0 18 -11 28 -50 46 -35 16 -50 28 -50 42 0 15 5 18 28 13
15 -3 86 -15 157 -26 188 -30 302 -63 444 -129 134 -63 232 -95 321 -106 30
-4 79 -14 109 -22 37 -11 74 -13 114 -9 62 6 339 86 388 112 29 15 41 54 17
54 -8 1 -7 5 4 14 20 15 128 41 259 61 l97 16 105 -35 c95 -32 215 -57 415
-86 135 -19 166 -15 355 50 97 33 181 60 187 60 6 0 29 14 51 32 l39 32 21
-22 c11 -12 21 -22 22 -22 2 0 7 74 11 173 0 9 7 17 16 17 18 0 51 -20 33 -20
-8 0 -9 -9 -4 -27 14 -52 14 -143 -1 -143 -9 -1 -8 -4 3 -10 9 -5 77 -12 150
-15 183 -8 325 -24 379 -43 70 -24 460 -17 476 9 3 5 15 9 27 9 28 1 67 30 50
37 -15 5 -18 33 -4 33 5 0 12 -6 14 -12 4 -10 6 -10 6 0 1 8 -8 16 -19 19 -11
3 -20 9 -20 14 0 5 -11 7 -25 3 -15 -4 -25 -2 -25 5 0 6 -6 11 -14 11 -7 0
-19 7 -26 15 -16 19 -34 19 -27 0 4 -8 2 -17 -2 -20 -10 -6 -24 23 -17 34 3 4
-9 6 -27 3 -25 -3 -29 -1 -17 8 12 9 10 10 -10 8 -14 -2 -28 -7 -31 -12 -8
-10 -29 1 -29 15 0 6 39 9 99 7 55 -1 98 -5 96 -8 -2 -3 1 -12 6 -20 8 -12 9
-11 7 5 -3 20 3 20 252 20 175 1 262 5 276 13 12 6 24 9 27 5 3 -3 38 2 76 12
39 9 91 15 116 13 25 -2 46 0 47 4 3 7 157 21 231 20 31 0 45 3 41 10 -5 7 5
9 30 4 l36 -7 0 2361 0 2360 -4130 0 -4130 0 0 -2729z m4841 1938 c11 -5 51
-13 90 -16 38 -3 69 -8 69 -11 0 -2 -9 -12 -19 -21 -11 -9 -19 -24 -18 -31 1
-8 -1 -15 -5 -15 -35 0 -142 -196 -184 -335 -58 -196 -68 -308 -31 -380 18
-37 33 -51 87 -77 36 -18 66 -37 66 -43 1 -5 2 -14 3 -20 0 -5 6 -10 12 -10 7
0 9 9 6 21 -4 17 -3 18 9 8 11 -9 12 -15 3 -25 -9 -11 -8 -14 2 -14 8 0 2 -11
-14 -25 -15 -14 -27 -30 -27 -34 0 -15 82 -18 87 -4 3 8 23 13 50 13 34 0 44
3 40 14 -4 11 1 11 35 -1 50 -17 143 -56 226 -94 35 -16 65 -29 68 -29 4 0
148 -63 249 -110 190 -87 242 -114 258 -131 10 -10 28 -19 42 -19 13 0 30 -3
38 -6 23 -8 -2 -50 -40 -68 -18 -9 -33 -21 -33 -27 0 -7 -7 -5 -19 5 -17 16
-19 16 -25 0 -3 -9 -12 -14 -20 -11 -7 3 -18 1 -24 -5 -9 -9 -67 -20 -123 -22
-21 -1 -25 -5 -21 -21 4 -16 3 -18 -9 -9 -8 6 -27 14 -44 18 -22 5 -26 4 -15
-4 19 -13 4 -13 -20 0 -13 7 -19 6 -24 -6 -4 -10 -13 -13 -25 -9 -11 3 -25 -1
-34 -10 -12 -11 -25 -13 -60 -6 -36 6 -44 5 -40 -5 5 -15 -26 -13 -67 4 -14 5
-29 7 -35 4 -18 -11 -67 -12 -86 -2 -15 8 -19 8 -17 -2 2 -9 -10 -13 -37 -14
-22 -1 -58 -6 -79 -12 -22 -6 -43 -9 -48 -6 -4 3 -8 1 -8 -5 0 -13 -97 -5
-127 11 -17 8 -20 14 -12 24 8 10 7 18 -5 29 -9 9 -20 14 -25 11 -5 -4 -11 -1
-13 6 -4 10 -10 10 -31 1 -15 -7 -27 -8 -27 -3 0 16 81 90 92 84 6 -4 9 -1 6
7 -3 8 -22 16 -44 19 -31 4 -36 7 -23 15 18 11 42 73 33 86 -3 5 -16 6 -30 3
-14 -4 -24 -2 -24 5 0 6 -7 11 -15 11 -10 0 -16 -16 -21 -50 -5 -34 -11 -50
-21 -50 -9 0 -13 6 -9 15 3 8 0 15 -6 15 -6 0 -5 6 3 17 12 14 12 16 -1 11 -8
-3 -14 -14 -12 -24 1 -10 3 -52 4 -91 2 -52 6 -73 15 -73 7 0 13 -6 13 -14 0
-7 11 -25 25 -40 13 -14 19 -26 14 -26 -6 0 -7 -4 -4 -10 3 -5 4 -10 1 -10
-14 0 -62 27 -73 40 -11 13 -12 13 -13 -1 0 -9 7 -19 15 -23 32 -12 14 -24
-22 -15 -44 10 -73 4 -73 -15 0 -8 -16 -16 -37 -19 -21 -2 -44 -6 -52 -8 -10
-3 -16 6 -18 29 -1 17 2 32 7 32 5 0 9 8 8 18 -1 9 0 26 1 37 l2 20 9 -20 c7
-16 9 -13 9 17 1 20 6 40 12 43 6 4 7 14 3 24 -11 25 -5 63 12 82 9 10 13 26
10 36 -3 11 3 46 15 79 11 32 22 70 24 84 2 13 9 26 14 28 6 2 11 14 11 26 0
13 9 34 21 47 12 14 18 31 15 44 -8 31 34 134 62 153 23 15 23 16 6 29 -49 36
-66 11 -134 -197 -21 -63 -42 -126 -48 -140 -5 -14 -26 -81 -47 -150 -77 -262
-106 -343 -130 -366 -17 -16 -20 -25 -12 -33 6 -6 8 -14 4 -18 -4 -3 -13 1
-20 9 -8 11 -18 13 -32 8 -11 -5 -14 -9 -7 -9 6 -1 12 -6 12 -12 0 -6 -7 -9
-15 -5 -9 3 -15 0 -15 -9 0 -8 -7 -15 -15 -15 -9 0 -15 -9 -15 -24 0 -14 -4
-28 -10 -31 -5 -3 -10 -20 -10 -36 0 -17 -5 -40 -12 -52 -14 -28 -53 -207 -73
-339 -8 -57 -19 -132 -25 -168 -25 -164 -32 -243 -32 -340 1 -58 -3 -112 -8
-120 -7 -10 -10 1 -10 36 0 28 -4 75 -10 105 -5 30 -12 68 -14 84 -5 45 -37
114 -79 175 -21 30 -63 91 -93 135 -34 50 -54 72 -54 60 0 -11 -4 -26 -9 -34
-6 -10 -12 2 -20 41 -7 30 -19 59 -29 66 -9 7 -46 32 -81 57 -36 25 -62 45
-57 45 4 0 4 5 0 11 -3 6 -8 32 -10 58 -2 25 -8 66 -13 91 -21 96 -31 180 -37
320 -6 136 -5 152 20 249 30 114 80 269 131 401 26 70 38 128 65 325 38 285
42 299 80 315 16 6 36 20 46 31 14 15 20 17 33 7 15 -12 15 -11 1 7 -34 44
-19 240 20 253 7 3 10 0 6 -6 -7 -11 38 -21 154 -32 41 -4 61 -8 43 -9 -21 -1
-36 -8 -43 -21 -6 -11 -19 -20 -29 -20 -15 0 -18 -10 -20 -59 -2 -55 0 -60 21
-65 13 -3 -17 -3 -66 -1 -54 2 -83 -1 -75 -6 8 -5 30 -9 50 -9 19 0 43 -6 54
-13 16 -13 14 -15 -25 -21 -73 -11 -33 -24 110 -36 131 -11 170 -21 142 -39
-36 -22 75 -28 217 -11 46 5 87 12 90 16 10 10 -49 54 -73 54 -31 0 -41 37
-18 65 9 11 0 4 -21 -15 -31 -28 -46 -35 -82 -35 l-45 -1 0 61 0 61 66 55 c36
30 91 71 122 92 94 62 223 93 273 66z m-723 -56 c-10 -2 -26 -2 -35 0 -10 3
-2 5 17 5 19 0 27 -2 18 -5z m-71 -9 c-3 -3 -12 -4 -19 -1 -8 3 -5 6 6 6 11 1
17 -2 13 -5z m133 -14 c0 -5 -4 -10 -10 -10 -5 0 -10 5 -10 10 0 6 5 10 10 10
6 0 10 -4 10 -10z m165 0 c3 -6 -1 -7 -9 -4 -18 7 -21 14 -7 14 6 0 13 -4 16
-10z m1256 -237 c13 -15 12 -15 -11 -3 -34 17 -36 20 -18 20 9 0 22 -7 29 -17z
m84 -43 c54 -31 86 -60 67 -60 -6 0 -13 4 -16 9 -3 5 -31 23 -61 40 -50 29
-65 41 -49 41 4 0 30 -14 59 -30z m119 -86 c9 -8 16 -18 16 -20 0 -7 -38 15
-45 26 -10 16 12 12 29 -6z m-2704 -57 c0 -32 -12 -61 -54 -132 -30 -49 -67
-103 -82 -118 -25 -27 -26 -33 -22 -107 3 -44 10 -85 16 -92 16 -19 -14 -78
-79 -158 -100 -122 -231 -305 -271 -377 -22 -40 -43 -73 -46 -73 -4 0 -40 7
-81 15 -85 18 -122 35 -148 68 -10 14 -28 27 -39 31 -12 3 -26 18 -32 31 -6
14 -16 25 -21 25 -13 0 -25 83 -17 115 7 29 26 24 26 -7 0 -27 37 -78 57 -78
9 0 76 39 150 87 97 62 154 108 204 161 38 41 69 77 69 82 0 4 15 18 34 31 18
12 39 31 45 41 19 31 31 113 21 147 -5 17 -5 33 0 36 5 3 5 19 0 36 -6 20 -6
39 0 50 14 26 12 33 -5 19 -17 -14 -28 -10 -17 6 14 19 199 182 222 194 14 7
20 8 16 1 -5 -7 -1 -9 8 -5 9 3 14 10 11 14 -3 5 4 6 15 3 16 -4 20 -14 20
-46z m-655 -40 c17 -2 49 -4 73 -5 63 -3 43 -19 -33 -27 -37 -4 -80 -11 -97
-16 -22 -6 -36 -5 -47 4 -10 8 -13 9 -8 0 4 -6 3 -14 -2 -18 -5 -3 -14 2 -19
11 -6 10 -16 15 -26 11 -41 -16 -3 -37 67 -37 20 0 37 -4 37 -10 0 -11 -61
-12 -100 -1 -21 6 -25 14 -27 44 0 24 3 35 10 30 6 -4 8 -1 5 8 -4 11 8 14 66
12 39 -2 85 -4 101 -6z m3138 -78 c11 -20 22 -29 32 -25 9 3 15 -1 15 -10 0
-10 6 -14 14 -11 8 3 17 3 21 -1 4 -4 12 -7 18 -7 6 0 22 -16 35 -35 22 -32
22 -35 6 -47 -10 -7 -40 -13 -67 -13 -47 0 -49 1 -45 25 l5 25 -25 -25 c-13
-13 -34 -24 -46 -23 -11 0 -43 -5 -70 -11 -26 -6 -57 -9 -67 -6 -16 5 -10 14
36 60 31 30 65 74 76 99 22 50 35 51 62 5z m-3135 -48 c17 -1 32 -5 32 -11 0
-5 -25 -10 -55 -10 -34 0 -55 -4 -55 -11 0 -6 -7 -9 -15 -5 -8 3 -15 1 -15 -4
0 -6 -4 -10 -10 -10 -5 0 -10 9 -10 20 0 13 -7 20 -20 20 -11 0 -20 2 -20 4 0
2 -2 11 -6 19 -4 12 5 12 68 1 40 -7 88 -13 106 -13z m169 -7 c-3 -3 -12 -4
-19 -1 -8 3 -5 6 6 6 11 1 17 -2 13 -5z m-194 -74 c26 -6 19 -8 -33 -9 -36 0
-78 6 -95 14 -28 13 -27 14 33 8 34 -3 77 -9 95 -13z m3442 -39 c-1 -36 -6
-56 -19 -69 -17 -16 -18 -15 -12 28 3 25 5 58 5 73 1 18 5 27 14 24 7 -2 12
-23 12 -56z m55 -50 c-6 -23 -15 -41 -20 -41 -13 0 -13 4 7 84 16 64 18 67 21
34 2 -20 -2 -55 -8 -77z m-2153 -8 c-3 -10 -5 -4 -5 12 0 17 2 24 5 18 2 -7 2
-21 0 -30z m-778 -155 c-11 -19 -14 -20 -17 -6 -2 10 3 24 10 32 18 19 22 2 7
-26z m1811 -418 c0 -11 -7 -20 -15 -20 -8 0 -15 9 -15 20 0 11 7 20 15 20 8 0
15 -9 15 -20z m-14 -59 c-15 -28 -46 -49 -46 -31 0 24 25 60 42 60 17 0 17 -2
4 -29z m854 -91 c0 -5 -10 -10 -22 -9 -22 0 -22 1 -3 9 11 5 21 9 23 9 1 1 2
-3 2 -9z m-825 -10 c3 -5 1 -10 -4 -10 -6 0 -11 5 -11 10 0 6 2 10 4 10 3 0 8
-4 11 -10z m983 -2 c39 1 42 -14 5 -22 -35 -7 -85 6 -91 23 -4 11 2 12 24 6
16 -4 44 -7 62 -7z m-940 -15 c-2 -9 -9 -18 -16 -19 -7 -1 -8 0 -3 2 6 3 7 12
4 20 -3 8 0 14 7 14 6 0 10 -8 8 -17z m625 -42 c55 11 59 11 53 0 -7 -10 -84
-21 -102 -14 -8 3 -11 10 -7 16 5 8 8 8 10 0 3 -7 18 -7 46 -2z m617 -11 c0
-12 -7 -20 -17 -21 -17 -1 -17 -2 -1 -6 13 -3 16 -11 11 -36 -8 -42 -13 -47
-13 -14 0 16 -8 32 -19 39 -15 9 -17 15 -9 25 6 7 17 13 25 13 8 0 11 5 8 10
-3 6 -1 10 4 10 6 0 11 -9 11 -20z m-867 -12 c55 0 45 -15 -15 -21 -29 -3 -98
-12 -153 -21 -63 -9 -101 -11 -103 -5 -3 6 -8 6 -15 1 -20 -16 -75 -24 -82
-12 -4 7 0 10 11 8 12 -2 18 2 16 11 -2 8 3 11 12 8 15 -6 76 7 111 23 25 12
110 19 150 13 17 -3 47 -5 68 -5z m90 -5 c-7 -2 -21 -2 -30 0 -10 3 -4 5 12 5
17 0 24 -2 18 -5z m-45 -80 c-10 -2 -28 -2 -40 0 -13 2 -5 4 17 4 22 1 32 -1
23 -4z m-2030 -390 c-10 -2 -26 -2 -35 0 -10 3 -2 5 17 5 19 0 27 -2 18 -5z
m3265 -50 c-7 -2 -19 -2 -25 0 -7 3 -2 5 12 5 14 0 19 -2 13 -5z m-3173 -33
c0 -5 -2 -10 -4 -10 -3 0 -8 5 -11 10 -3 6 -1 10 4 10 6 0 11 -4 11 -10z
m-386 -96 c25 -14 46 -23 46 -19 0 4 7 2 15 -5 8 -6 19 -9 24 -6 5 4 13 1 16
-5 4 -5 14 -8 22 -5 9 4 17 -1 20 -14 5 -19 6 -19 18 -4 16 23 25 7 35 -60 l8
-51 1 50 c1 28 5 56 10 64 20 31 24 -121 17 -614 -7 -520 -11 -639 -22 -657
-6 -9 12 -27 26 -28 3 0 6 150 8 333 4 542 14 940 23 962 10 21 4 -914 -8
-1157 -5 -124 -4 -138 11 -138 13 0 16 11 17 63 0 34 2 98 4 142 2 44 6 302
10 574 4 272 11 503 16 515 13 28 -2 -1218 -15 -1285 -2 -9 2 -16 8 -16 42 3
157 -20 195 -38 37 -19 57 -22 106 -18 42 3 89 -2 153 -17 52 -12 92 -24 90
-25 -5 -6 -283 -114 -370 -144 l-78 -28 -99 23 c-55 12 -142 27 -193 34 -121
15 -245 54 -280 87 -15 14 -25 30 -22 35 3 5 50 31 105 58 90 46 105 50 169
50 68 0 70 1 70 25 0 18 -4 23 -15 19 -8 -4 -15 -14 -15 -23 -1 -11 -5 -9 -14
8 -9 16 -15 20 -21 12 -5 -9 -11 -7 -21 6 -11 14 -13 15 -14 3 0 -12 -4 -10
-15 4 -11 14 -15 16 -15 5 -1 -10 -3 -9 -11 4 -6 9 -14 15 -19 12 -5 -3 -16 5
-24 17 -13 19 -16 120 -22 651 -4 345 -5 627 -2 627 3 0 26 -12 52 -26z m2861
-37 c28 -14 76 -31 108 -38 31 -7 57 -16 57 -21 0 -5 9 -6 20 -3 15 5 22 1 28
-16 l9 -23 6 25 c8 31 23 16 36 -36 l9 -40 1 43 c1 23 5 42 11 42 24 0 24 -95
4 -670 -5 -161 -10 -193 -25 -188 -7 2 -10 60 -9 168 0 90 -1 162 -4 160 -2
-3 -7 -81 -11 -174 -3 -93 -8 -173 -10 -176 -2 -3 -5 -47 -6 -96 -2 -103 -8
-156 -19 -149 -4 3 -6 118 -3 257 2 139 2 250 0 248 -3 -3 -8 -77 -12 -165 -4
-88 -9 -171 -10 -185 -1 -14 -3 -51 -3 -83 -1 -37 -6 -56 -12 -52 -7 4 -8 80
-4 224 4 139 3 221 -3 224 -14 9 -23 -100 -23 -285 0 -102 -4 -158 -10 -158
-7 0 -8 98 -4 303 5 243 4 300 -6 290 -9 -8 -14 -75 -17 -245 -3 -128 -6 -237
-8 -243 -2 -5 -4 125 -4 289 -1 187 -5 296 -10 290 -6 -5 -12 -31 -14 -59 -3
-42 -4 -38 -6 25 -2 41 -7 89 -11 105 -7 28 -8 29 -10 5 -1 -23 -2 -23 -10 -5
-5 11 -9 35 -9 53 -1 18 -5 31 -10 28 -11 -7 -21 17 -21 50 0 14 -4 22 -10 19
-5 -3 -10 0 -10 8 0 9 -10 33 -22 56 l-21 41 -18 -30 c-10 -16 -37 -39 -60
-50 -53 -28 -217 -47 -268 -31 -54 15 -340 26 -321 11 13 -9 12 -11 -5 -6 -11
2 -42 7 -69 11 -36 5 -46 4 -41 -6 10 -15 -64 -3 -80 13 -7 7 -2 8 15 4 14 -4
-4 8 -40 26 -92 46 -120 67 -120 89 0 25 8 24 38 -3 23 -22 24 -22 37 -4 8 10
16 23 17 28 2 6 18 -4 36 -20 102 -96 639 -122 741 -36 30 25 41 23 41 -8 0
-21 10 -23 34 -5 18 13 18 15 -5 36 -26 24 -129 76 -172 87 -15 3 -26 8 -23
11 8 9 142 -29 185 -53 24 -13 47 -21 52 -18 5 3 9 44 9 91 l0 86 23 -20 c12
-12 45 -32 72 -46z m-2716 37 c8 -7 -54 -2 -79 6 -17 6 -9 7 25 3 28 -3 52 -7
54 -9z m478 -166 c-2 -29 -3 -8 -3 47 0 55 1 79 3 53 2 -26 2 -71 0 -100z
m3373 -373 c-12 -459 -27 -805 -36 -840 -3 -13 -11 -26 -17 -28 -9 -3 -10 40
-6 172 4 97 6 232 6 301 0 98 -3 70 -13 -125 l-12 -250 3 325 3 325 -13 -305
-13 -305 4 345 c2 190 4 455 5 588 0 134 3 251 7 260 4 10 9 -68 12 -173 l6
-190 3 195 c1 120 6 187 11 175 7 -16 9 -17 9 -3 1 9 11 24 24 33 22 15 22 15
25 -37 2 -29 -1 -237 -8 -463z m-3403 245 c0 -110 -1 -117 -7 -55 -4 39 -7
126 -7 195 0 110 1 117 7 55 4 -38 7 -126 7 -195z m120 213 c-3 -10 -5 -2 -5
17 0 19 2 27 5 18 2 -10 2 -26 0 -35z m-253 -565 c-4 -332 -10 -625 -14 -653
-8 -56 -2 1146 6 1213 3 23 8 42 10 42 3 0 2 -271 -2 -602z m46 187 c0 -228
-3 -415 -7 -415 -11 0 -17 615 -8 734 4 53 9 96 11 96 2 0 4 -187 4 -415z
m-95 -422 c-4 -255 -10 -463 -14 -463 -9 0 -3 1123 7 1220 11 120 15 -222 7
-757z m1560 812 c-22 -8 -51 -13 -65 -13 -17 0 -10 4 20 13 59 17 97 17 45 0z
m-1416 -243 c0 -130 -4 -255 -8 -277 -6 -25 -9 65 -10 243 -1 187 2 281 9 277
6 -4 10 -95 9 -243z m-183 -136 c-11 -661 -19 -905 -27 -900 -5 3 -6 109 -4
237 4 185 12 691 15 990 0 33 3 46 11 41 9 -5 10 -102 5 -368z m3520 -123 c-5
-274 -12 -561 -16 -638 -6 -103 -7 -61 -4 155 2 162 5 426 6 585 1 292 5 395
16 395 3 0 2 -224 -2 -497z m-31 25 c-4 -255 -11 -542 -15 -638 -4 -102 -6 64
-3 400 3 552 8 700 20 700 4 0 3 -208 -2 -462z m-3198 430 c-3 -8 -6 -5 -6 6
-1 11 2 17 5 13 3 -3 4 -12 1 -19z m1816 1 c20 -5 37 -14 37 -20 0 -6 4 -8 9
-4 11 6 61 -14 61 -25 0 -16 -14 -18 -39 -6 -14 8 -55 20 -89 26 -35 7 -69 18
-75 25 -7 6 -19 15 -27 18 -20 9 76 -2 123 -14z m1346 -526 c-6 -285 -14 -585
-18 -668 -6 -99 -7 0 -4 290 5 618 14 932 24 912 6 -9 5 -229 -2 -534z m-88
22 c-17 -610 -24 -806 -29 -801 -6 7 16 1086 25 1216 14 192 15 18 4 -415z
m55 368 c-3 -82 -11 -368 -17 -638 -6 -269 -15 -517 -20 -550 -7 -54 -8 -52
-4 25 3 47 7 294 10 550 4 256 8 501 10 545 2 44 4 110 5 148 0 41 4 67 11 67
7 0 9 -45 5 -147z m-581 89 c3 -26 4 -74 1 -107 -3 -33 -8 -175 -12 -315 -12
-406 -10 -370 -26 -370 -8 0 -9 88 -4 353 7 365 13 487 26 487 5 0 11 -21 15
-48z m41 -229 c-8 -325 -17 -556 -22 -562 -15 -17 -16 57 -6 415 11 379 14
424 29 424 3 0 3 -125 -1 -277z m409 150 c-3 -71 -15 -341 -25 -602 -11 -261
-22 -476 -25 -479 -7 -7 -6 55 5 343 5 138 14 385 20 549 6 165 13 303 16 308
13 20 14 0 9 -119z m41 -75 c-16 -488 -37 -1046 -40 -1078 -11 -95 19 1094 30
1218 11 127 17 56 10 -140z m-405 -174 c-6 -197 -11 -382 -11 -411 0 -29 -4
-53 -10 -53 -13 0 -13 182 1 535 9 259 13 304 26 292 2 -3 0 -166 -6 -363z
m55 204 c-3 -90 -7 -262 -8 -383 -2 -225 -8 -318 -19 -300 -8 13 7 820 15 834
17 26 19 2 12 -151z m44 -369 c-5 -288 -10 -550 -10 -582 0 -35 -4 -56 -10
-52 -9 6 -9 63 5 856 4 245 9 318 21 306 2 -2 -1 -239 -6 -528z m50 -56 c-6
-318 -14 -580 -16 -582 -2 -2 -6 -2 -8 0 -6 7 12 1070 19 1122 4 27 9 46 12
43 3 -2 -1 -265 -7 -583z m50 0 c-6 -318 -13 -580 -16 -582 -2 -2 -6 -2 -8 0
-6 6 12 1053 20 1117 3 30 8 51 11 48 3 -2 0 -265 -7 -583z m61 311 c-6 -148
-13 -393 -17 -544 -4 -151 -10 -295 -15 -320 -8 -49 -3 367 11 820 8 256 14
329 26 317 3 -2 0 -125 -5 -273z m55 154 c-3 -68 -13 -334 -22 -593 -9 -259
-18 -472 -20 -474 -13 -14 -13 -13 16 832 6 181 14 335 17 343 12 33 15 7 9
-108z m-1224 76 c33 -8 73 -12 89 -9 15 4 36 2 46 -4 14 -8 6 -10 -37 -11 -31
0 -61 -5 -68 -12 -9 -9 -18 -9 -39 1 -19 9 -29 9 -31 2 -5 -16 -32 -13 -32 3
0 16 -61 30 -89 21 -10 -3 -29 -1 -43 4 -18 7 -34 5 -57 -6 -26 -13 -34 -14
-44 -3 -10 10 -7 12 11 7 12 -3 22 -1 22 3 0 23 190 26 272 4z m-1765 -76 c-3
-8 -6 -5 -6 6 -1 11 2 17 5 13 3 -3 4 -12 1 -19z m-30 -210 c-3 -8 -6 -5 -6 6
-1 11 2 17 5 13 3 -3 4 -12 1 -19z m-1083 -179 c120 -37 170 -59 138 -59 -18
0 -254 78 -272 90 -26 17 -1 11 134 -31z m1396 11 c12 -8 10 -10 -10 -9 -14 0
-34 4 -45 9 -17 7 -16 9 10 9 17 0 37 -4 45 -9z m-200 -15 c-10 -13 -10 -19 4
-34 15 -17 16 -19 1 -25 -23 -9 -27 -8 -20 5 4 6 -2 13 -14 16 -25 6 -26 11
-4 35 21 23 52 26 33 3z m-1340 -95 c8 -5 11 -10 5 -10 -5 0 -17 5 -25 10 -8
5 -10 10 -5 10 6 0 17 -5 25 -10z m163 -52 c73 -23 124 -44 114 -46 -17 -4
-219 60 -247 78 -26 17 -1 11 133 -32z m1602 -48 c8 -7 15 -20 15 -30 0 -21
-73 -83 -109 -91 -39 -10 -351 -10 -391 0 -19 4 -44 11 -55 14 -15 5 -21 2
-22 -11 -8 -77 -33 -113 -33 -46 0 19 -4 33 -8 30 -5 -3 -9 1 -9 9 0 8 5 11
10 8 6 -4 8 1 4 11 -26 68 -18 87 48 117 56 26 75 24 75 -5 0 -14 -5 -28 -10
-31 -6 -4 -8 -11 -4 -16 24 -39 277 -68 369 -41 28 8 55 15 60 16 6 1 20 9 33
17 22 16 22 16 3 33 -10 9 -31 21 -47 25 -15 4 -29 12 -32 19 -4 14 80 -9 103
-28z m-1710 -59 c11 -4 36 -4 57 0 21 5 47 5 60 0 13 -6 17 -10 11 -10 -7 -1
-13 -8 -13 -16 0 -9 -7 -18 -15 -21 -8 -4 -13 -10 -10 -14 3 -5 18 -3 34 3 27
10 32 8 80 -41 45 -45 57 -50 52 -19 -1 5 3 6 9 2 5 -3 10 -13 10 -22 0 -13 3
-13 15 -3 12 10 15 10 15 0 0 -8 3 -10 6 -7 12 12 -18 67 -50 93 -20 16 -23
22 -9 15 12 -6 35 -28 50 -48 16 -20 43 -52 62 -72 18 -20 41 -54 51 -76 20
-44 37 -150 20 -125 -8 12 -10 11 -10 -8 0 -22 -26 -82 -35 -82 -2 0 0 12 5
26 6 14 10 33 9 42 0 9 -7 0 -14 -21 -8 -20 -22 -47 -31 -60 -14 -19 -15 -19
-8 -2 4 11 9 47 10 80 3 57 2 58 -6 18 -9 -45 -34 -98 -50 -108 -5 -3 -2 11 6
32 15 34 15 42 -1 91 -15 49 -15 55 -1 71 29 32 16 29 -20 -5 -42 -40 -68 -46
-33 -7 13 14 18 23 12 19 -7 -4 -13 -2 -13 4 0 6 -11 8 -27 4 -19 -4 -24 -3
-15 4 11 7 8 11 -12 16 -31 8 -33 17 -6 41 11 10 20 25 20 34 -1 10 -7 5 -16
-11 -8 -16 -19 -28 -25 -28 -6 0 -8 4 -5 9 3 5 -16 11 -43 13 -27 1 -47 0 -44
-4 7 -13 -12 -9 -25 4 -9 9 -12 9 -12 1 0 -7 13 -20 29 -29 29 -17 29 -18 11
-34 -20 -17 -28 -49 -17 -66 12 -19 -59 1 -98 27 -19 13 -40 34 -46 46 l-12
23 -15 -30 c-8 -16 -18 -28 -22 -25 -4 3 -15 -12 -23 -33 -13 -30 -16 -32 -16
-14 -1 27 14 58 41 89 13 14 21 38 22 70 2 26 6 55 10 64 6 14 -2 14 -80 -3
-48 -10 -91 -17 -96 -16 -6 2 36 14 93 27 69 16 116 33 141 51 36 27 37 28 15
38 -25 12 -12 14 18 3z m1072 -103 c-3 -7 -5 -2 -5 12 0 14 2 19 5 13 2 -7 2
-19 0 -25z m-1599 5 c-10 -2 -26 -2 -35 0 -10 3 -2 5 17 5 19 0 27 -2 18 -5z
m130 -13 c4 -12 2 -13 -9 -3 -8 6 -27 13 -44 16 -23 4 -20 4 9 3 25 -1 41 -6
44 -16z m-223 -8 c-44 -25 -134 -112 -153 -147 -9 -16 -19 -61 -23 -100 -7
-72 1 -103 40 -150 l16 -20 -24 20 c-41 35 -65 94 -66 161 0 51 5 68 31 110
17 27 36 48 42 47 5 -1 16 4 22 12 7 8 9 15 5 15 -16 0 46 41 82 55 52 19 64
18 28 -3z m285 2 c0 -2 -11 -4 -25 -4 -14 0 -25 4 -25 9 0 4 11 6 25 3 14 -2
25 -6 25 -8z m4082 -1 c35 -5 39 -8 25 -18 -13 -9 -17 -29 -17 -84 0 -68 -1
-71 -24 -71 -38 0 -46 20 -39 93 4 49 2 71 -8 84 -12 15 -12 16 4 10 10 -4 37
-10 59 -14z m-2107 -32 c1 -14 -8 -23 -28 -31 -17 -5 -33 -8 -35 -5 -3 3 -1 5
4 5 5 0 10 9 11 20 4 47 45 56 48 11z m-2065 21 c0 -5 -14 -9 -32 -10 -23 -1
-28 2 -18 8 19 12 50 13 50 2z m127 2 c-3 -3 -12 -4 -19 -1 -8 3 -5 6 6 6 11
1 17 -2 13 -5z m1370 -76 c-2 -18 -4 -6 -4 27 0 33 2 48 4 33 2 -15 2 -42 0
-60z m2833 3 c0 -63 -3 -80 -16 -85 -40 -16 -44 -9 -44 79 l0 85 30 0 30 0 0
-79z m-4439 47 c1 -13 1 -28 0 -34 -1 -7 8 -14 19 -17 20 -5 20 -6 -5 -31 -31
-31 -31 -41 0 -71 13 -14 19 -25 13 -25 -6 0 -17 8 -24 18 -9 11 -13 13 -14 4
0 -7 -4 -10 -10 -7 -5 3 -10 0 -10 -8 0 -8 7 -18 16 -21 8 -3 13 -10 9 -15 -3
-5 -1 -12 5 -16 7 -4 7 -12 0 -25 -7 -13 -7 -21 1 -26 7 -4 7 -10 1 -16 -12
-12 -59 16 -65 40 -4 13 -5 12 -6 -4 0 -12 9 -34 21 -50 12 -16 15 -23 8 -16
-21 19 -35 14 -19 -6 8 -10 1 -5 -14 11 -16 17 -26 35 -23 44 3 8 6 23 6 33 0
11 13 34 29 52 24 28 27 37 18 61 -8 24 -5 34 13 58 16 22 20 38 15 60 -4 18
-3 29 4 29 6 0 12 -10 12 -22z m1769 7 c0 -8 -2 -15 -4 -15 -2 0 -11 -3 -19
-6 -14 -5 -16 7 -8 34 3 10 31 -1 31 -13z m-1627 -49 c57 -42 113 -66 126 -53
8 8 11 8 11 -1 0 -6 6 -9 13 -6 7 2 19 -7 27 -20 7 -14 17 -23 22 -20 14 9 21
-25 9 -40 -9 -11 -9 -15 1 -19 10 -4 10 -8 -2 -16 -21 -15 -33 -13 -27 4 4 8
1 17 -5 21 -7 5 -9 -4 -4 -29 9 -50 -9 -112 -45 -150 -28 -29 -29 -30 -14 -5
46 74 34 172 -26 234 l-33 34 -13 -28 c-25 -50 -43 -77 -43 -64 0 10 -8 12
-30 7 -19 -4 -30 -3 -30 4 0 6 5 11 12 11 19 0 48 32 48 53 0 10 -10 33 -22
50 -42 58 -30 74 25 33z m-31 -53 c10 -9 18 -22 18 -28 0 -19 -27 -38 -42 -29
-6 4 -26 8 -42 8 -22 1 -32 7 -34 20 -8 41 64 62 100 29z m-302 -22 c-11 -16
-27 -45 -35 -63 -9 -20 -14 -26 -15 -15 0 23 16 55 43 85 29 31 32 28 7 -7z
m1797 -108 c-2 -27 -3 -5 -3 47 0 52 1 74 3 48 2 -27 2 -69 0 -95z m-1761 65
c-36 -41 -54 -94 -42 -123 4 -10 2 -14 -5 -9 -7 4 -10 27 -7 59 5 59 38 115
69 115 18 0 16 -5 -15 -42z m675 -6 c13 -10 33 -22 44 -27 18 -7 18 -9 3 -12
-23 -6 -23 -19 -1 -27 12 -5 13 -10 5 -18 -16 -16 -52 18 -52 48 0 13 -4 26
-10 29 -22 14 -9 -47 15 -69 33 -31 32 -41 -2 -19 l-28 17 19 -22 c25 -29 6
-29 -21 1 -28 30 -35 59 -24 91 12 31 20 32 52 8z m1626 12 c-3 -3 -12 -4 -19
-1 -8 3 -5 6 6 6 11 1 17 -2 13 -5z m-1392 -14 c3 -5 2 -10 -4 -10 -5 0 -13 5
-16 10 -3 6 -2 10 4 10 5 0 13 -4 16 -10z m3302 -16 l51 -14 -19 -40 c-19 -39
-21 -41 -57 -34 -20 4 -63 8 -94 8 -48 1 -58 4 -58 18 0 9 8 19 18 22 9 3 25
20 34 36 19 33 18 33 125 4z m-4015 -51 c-6 -31 -22 -18 -22 18 0 24 2 28 13
17 8 -6 12 -22 9 -35z m748 3 c0 -26 -6 -18 -14 19 -5 22 -4 26 4 15 5 -8 10
-24 10 -34z m3440 14 c4 0 6 -9 3 -21 -6 -22 -44 -52 -61 -47 -6 2 -17 -5 -24
-15 -22 -29 -51 -12 -44 26 11 55 34 80 67 73 17 -3 31 -1 36 7 5 8 9 7 11 -5
2 -10 7 -18 12 -18z m-3823 -12 c-3 -8 -6 -5 -6 6 -1 11 2 17 5 13 3 -3 4 -12
1 -19z m2227 1 c15 -12 25 -24 22 -27 -3 -2 -13 1 -22 9 -16 13 -16 12 -6 -8
18 -34 15 -49 -6 -30 -10 10 -31 17 -45 17 -32 0 -34 13 -7 40 25 25 31 25 64
-1z m1800 -15 c3 -8 2 -12 -4 -9 -6 3 -10 10 -10 16 0 14 7 11 14 -7z m-1520
-4 c18 -7 26 -6 26 1 0 14 30 9 130 -21 86 -26 86 -26 123 -16 18 4 26 3 25
-5 -2 -6 11 -16 28 -23 17 -6 39 -19 48 -28 12 -12 33 -18 64 -18 61 0 92 -9
92 -26 0 -21 18 -27 104 -35 82 -7 176 -42 285 -106 53 -31 57 -27 -108 -90
l-116 -45 -120 6 c-126 6 -266 32 -325 59 -19 8 -81 30 -138 48 l-104 32 51
23 c28 13 63 26 78 29 15 2 29 9 31 14 2 7 10 7 20 1 27 -14 114 -40 136 -40
12 0 50 -9 84 -20 66 -21 167 -27 176 -11 6 8 -90 48 -105 43 -9 -2 1 40 14
56 7 9 4 12 -12 12 -12 0 -20 -4 -17 -9 13 -21 -29 -19 -86 4 -75 30 -76 31
-88 3 -8 -21 -9 -19 -9 11 -1 27 -4 32 -13 23 -17 -17 -38 -15 -38 3 0 8 -4
15 -10 15 -9 0 -14 -14 -11 -33 1 -4 -7 -4 -16 1 -10 5 -33 12 -52 16 -19 3
-54 16 -77 28 -24 12 -47 18 -51 14 -11 -11 57 -64 87 -68 22 -3 19 -6 -26
-30 -27 -14 -67 -29 -87 -33 -24 -5 -47 -19 -64 -39 -14 -17 -30 -30 -34 -29
-4 1 -5 -5 -3 -15 2 -9 0 -24 -5 -32 -9 -12 -16 -9 -44 18 -33 32 -47 39 -47
24 0 -5 11 -15 25 -22 28 -15 32 -41 10 -60 -13 -10 -19 -10 -33 4 -24 21 -27
20 -45 -8 -15 -23 -15 -24 3 -19 12 3 20 0 20 -7 0 -12 -79 -130 -87 -130 -3
0 -15 8 -28 18 -22 18 -23 21 -9 47 8 16 31 48 50 72 26 32 31 43 19 43 -15 0
-14 3 2 30 9 17 21 30 26 30 5 0 5 9 2 20 -8 26 19 38 42 19 11 -9 14 -10 9
-2 -4 7 -2 22 4 34 8 14 8 29 1 50 -9 25 -6 33 17 61 29 34 30 37 12 48 -9 5
-6 10 9 15 15 4 29 1 41 -10 12 -11 20 -13 25 -6 3 6 -1 11 -9 11 -10 0 -13 6
-10 15 5 13 9 13 27 0 16 -11 24 -12 36 -2 11 9 13 9 8 0 -11 -18 9 -25 23 -8
10 12 8 16 -14 25 -28 10 -35 30 -12 30 8 0 26 -4 40 -10z m2093 -107 c-2 -21
-4 -4 -4 37 0 41 2 58 4 38 2 -21 2 -55 0 -75z m-517 78 c0 -6 -4 -13 -10 -16
-5 -3 -10 -12 -10 -18 0 -7 5 -4 11 5 19 33 41 37 118 22 41 -7 85 -11 98 -8
37 10 53 -12 53 -71 0 -83 -38 -165 -77 -165 -18 0 -33 42 -33 95 l0 43 -63
11 c-35 6 -73 11 -85 11 -16 0 -22 6 -22 23 -1 22 -1 21 -13 -3 -16 -34 -57
-40 -57 -9 0 12 -7 30 -16 40 -15 16 -14 19 13 33 31 17 93 21 93 7z m-1943
-15 c-4 -9 4 -18 22 -24 15 -5 36 -18 46 -28 18 -19 18 -18 12 6 -6 24 -5 24
8 6 8 -11 15 -22 15 -25 0 -14 -38 -62 -46 -59 -5 2 -15 -10 -23 -26 l-14 -29
-13 29 c-12 29 -12 29 -14 4 -2 -18 -4 -20 -7 -8 -2 10 -16 21 -29 24 -15 4
-23 12 -20 19 2 7 0 17 -6 23 -16 16 28 102 53 102 14 0 19 -5 16 -14z m2480
-78 c-2 -13 -4 -3 -4 22 0 25 2 35 4 23 2 -13 2 -33 0 -45z m-80 -30 c-2 -18
-4 -6 -4 27 0 33 2 48 4 33 2 -15 2 -42 0 -60z m30 0 c-2 -13 -4 -5 -4 17 -1
22 1 32 4 23 2 -10 2 -28 0 -40z m-4553 34 c2 -4 -7 -9 -22 -10 -23 -2 -65
-19 -137 -55 -18 -9 -18 -8 -7 6 32 39 152 81 166 59z m2044 -50 c19 -33 9
-38 -46 -24 -26 6 -68 14 -94 17 -27 3 -48 11 -48 17 0 5 6 8 13 5 8 -3 38 -2
68 2 81 10 93 8 107 -17z m2299 -39 c-2 -16 -4 -5 -4 22 0 28 2 40 4 28 2 -13
2 -35 0 -50z m-4085 31 c17 -16 17 -18 -3 -35 -21 -18 -29 -17 -57 4 -10 8 -9
14 4 28 21 23 32 24 56 3z m4135 -31 c-3 -10 -5 -2 -5 17 0 19 2 27 5 18 2
-10 2 -26 0 -35z m-4892 19 c-3 -3 -11 0 -18 7 -9 10 -8 11 6 5 10 -3 15 -9
12 -12z m3259 2 c5 -14 4 -15 -9 -4 -17 14 -19 20 -6 20 5 0 12 -7 15 -16z
m953 -6 c-3 -8 -6 -5 -6 6 -1 11 2 17 5 13 3 -3 4 -12 1 -19z m40 -10 c-3 -7
-5 -2 -5 12 0 14 2 19 5 13 2 -7 2 -19 0 -25z m-2071 2 c93 -32 88 -29 74 -44
-16 -21 11 -33 86 -39 67 -5 142 -43 218 -112 22 -19 50 -35 63 -35 23 0 23 0
6 -27 -18 -27 -18 -27 -21 -5 -2 12 -8 22 -13 22 -6 0 -80 -20 -165 -45 -153
-44 -157 -45 -262 -39 -126 8 -240 42 -368 109 -46 24 -99 47 -118 51 -45 8
-46 20 -3 33 17 5 111 41 207 79 96 39 189 71 206 71 17 1 57 -8 90 -19z m974
16 c0 -2 -7 -7 -16 -10 -8 -3 -12 -2 -9 4 6 10 25 14 25 6z m278 -31 c-3 -3
-13 -2 -22 1 -14 5 -15 9 -4 15 13 8 36 -6 26 -16z m-3283 -27 c12 -5 -2 -6
-39 -2 -33 3 -69 10 -80 14 -13 6 2 7 39 3 33 -3 69 -10 80 -15z m4219 16 c27
-10 19 -34 -11 -34 -35 0 -58 14 -49 29 8 12 35 14 60 5z m-3494 -39 c8 -5 11
-4 7 2 -4 7 12 11 45 11 37 0 47 -3 35 -10 -21 -11 -22 -28 -3 -28 15 0 122
-55 140 -71 5 -5 -7 -6 -26 -3 -47 8 -91 -16 -125 -67 -27 -41 -27 -41 -35
-17 -5 14 -19 30 -33 36 -21 10 -25 8 -34 -16 -9 -26 -9 -26 -10 10 -1 33 -5
38 -36 48 -41 13 -41 15 -15 55 11 17 20 37 20 45 0 16 46 20 70 5z m-323 -32
c-3 -3 -11 -2 -17 2 -9 6 -9 10 1 16 14 8 27 -7 16 -18z m3489 -39 c32 -3 88
-6 124 -6 76 1 100 -5 100 -22 0 -18 -24 -65 -35 -69 -17 -7 -137 12 -200 32
-56 17 -60 21 -63 51 -2 18 1 30 6 27 4 -3 35 -9 68 -13z m-1260 -45 c19 -22
19 -22 -3 -10 -13 6 -23 16 -23 21 0 15 5 12 26 -11z m1716 -41 c-4 -77 -7
-88 -27 -88 -12 0 -15 13 -15 60 0 50 3 60 18 61 14 1 13 2 -3 7 l-20 5 20 8
c11 4 22 8 26 8 3 1 3 -27 1 -61z m567 16 c10 -9 -35 -3 -49 6 -11 8 -7 9 15
4 17 -4 32 -8 34 -10z m-3852 -10 c-3 -3 -12 -4 -19 -1 -8 3 -5 6 6 6 11 1 17
-2 13 -5z m-567 -22 c0 -13 -57 -42 -82 -42 -25 0 -74 29 -50 30 7 0 21 -4 30
-9 12 -6 28 -3 52 10 39 20 50 23 50 11z m2135 -42 c4 -6 1 -9 -7 -8 -7 2 -12
-4 -10 -13 1 -10 -6 -19 -18 -22 -26 -7 -25 3 0 31 24 25 26 26 35 12z m-1750
-95 l30 -13 -36 -1 c-21 -1 -42 5 -49 14 -10 12 -9 15 6 15 11 -1 33 -7 49
-15z m955 -66 c41 -12 70 -24 63 -26 -14 -5 -155 36 -168 49 -11 11 -10 11
105 -23z m-3020 11 c0 -5 -5 -10 -11 -10 -5 0 -7 5 -4 10 3 6 8 10 11 10 2 0
4 -4 4 -10z m-180 -110 c0 -5 -7 -10 -15 -10 -8 0 -15 5 -15 10 0 6 7 10 15
10 8 0 15 -4 15 -10z m-227 -147 c-7 -2 -19 -2 -25 0 -7 3 -2 5 12 5 14 0 19
-2 13 -5z m-83 -29 c0 -8 -4 -12 -10 -9 -5 3 -10 10 -10 16 0 5 5 9 10 9 6 0
10 -7 10 -16z"/>
<path d="M4080 4530 c0 -11 -4 -20 -9 -20 -14 0 -8 -53 7 -58 8 -2 12 11 12
47 0 28 -2 51 -5 51 -3 0 -5 -9 -5 -20z"/>
<path d="M4575 4504 c-9 -15 -12 -23 -6 -20 11 7 35 46 28 46 -3 0 -12 -12
-22 -26z"/>
<path d="M4208 4313 c12 -2 32 -2 45 0 12 2 2 4 -23 4 -25 0 -35 -2 -22 -4z"/>
<path d="M4525 4273 c-44 -7 -127 -13 -185 -14 -62 -1 -126 -8 -158 -17 l-53
-16 3 -55 c1 -31 -1 -94 -5 -141 -15 -182 -18 -221 -22 -410 -2 -107 -8 -251
-11 -320 -4 -69 -7 -135 -7 -147 1 -13 -4 -23 -11 -23 -6 0 -24 -12 -41 -26
-26 -23 -30 -32 -30 -79 0 -29 -3 -51 -7 -49 -5 3 -8 -2 -8 -11 0 -12 5 -15
16 -11 9 3 17 6 20 6 11 0 80 157 147 335 165 439 266 668 398 903 22 39 39
75 37 80 -2 4 -39 2 -83 -5z m-120 -44 c5 -14 1 -25 -11 -33 -11 -8 -15 -21
-12 -34 3 -12 0 -26 -7 -32 -7 -6 -16 -22 -19 -35 -4 -14 -11 -25 -16 -25 -6
0 -10 -5 -10 -11 0 -6 -7 -17 -15 -26 -8 -8 -12 -19 -9 -25 5 -7 2 -8 -6 -3
-9 6 -11 30 -7 94 5 89 21 137 47 145 38 10 59 5 65 -15z"/>
<path d="M4506 4053 c-6 -14 -5 -15 5 -6 7 7 10 15 7 18 -3 3 -9 -2 -12 -12z"/>
<path d="M4815 3741 c-3 -5 2 -11 10 -15 8 -3 17 -1 20 3 3 5 -2 11 -10 15 -8
3 -17 1 -20 -3z"/>
<path d="M4860 3710 c0 -5 5 -10 10 -10 6 0 10 5 10 10 0 6 -4 10 -10 10 -5 0
-10 -4 -10 -10z"/>
<path d="M5004 3676 c-10 -27 2 -43 14 -19 8 14 9 24 2 28 -6 3 -13 -1 -16 -9z"/>
<path d="M4910 3640 c0 -5 5 -10 11 -10 5 0 7 5 4 10 -3 6 -8 10 -11 10 -2 0
-4 -4 -4 -10z"/>
<path d="M4798 3453 c-16 -2 -28 -8 -28 -13 0 -10 99 -25 107 -16 4 3 -1 6 -9
6 -9 0 -18 7 -22 15 -3 8 -9 14 -13 14 -4 -1 -20 -4 -35 -6z"/>
<path d="M4867 3343 c-12 -11 -8 -23 8 -23 8 0 15 7 15 15 0 16 -12 20 -23 8z"/>
<path d="M4650 3310 c0 -5 11 -10 25 -10 14 0 25 5 25 10 0 6 -11 10 -25 10
-14 0 -25 -4 -25 -10z"/>
<path d="M4575 3290 c4 -6 11 -8 16 -5 14 9 11 15 -7 15 -8 0 -12 -5 -9 -10z"/>
<path d="M5135 3240 c3 -5 10 -10 16 -10 5 0 9 5 9 10 0 6 -7 10 -16 10 -8 0
-12 -4 -9 -10z"/>
<path d="M4860 3229 c0 -6 7 -18 16 -26 13 -14 17 -14 25 -2 6 9 3 18 -8 27
-21 15 -33 16 -33 1z"/>
<path d="M4623 3193 c-13 -5 -7 -33 7 -33 11 0 21 28 12 33 -4 3 -12 2 -19 0z"/>
<path d="M4673 3150 c0 -25 2 -35 4 -22 2 12 2 32 0 45 -2 12 -4 2 -4 -23z"/>
<path d="M4720 3146 c0 -9 5 -16 10 -16 6 0 10 4 10 9 0 6 -4 13 -10 16 -5 3
-10 -1 -10 -9z"/>
<path d="M4540 3122 c0 -11 5 -24 10 -27 6 -4 9 2 7 14 -4 29 -17 39 -17 13z"/>
<path d="M4003 2943 c-15 -5 -17 -23 -4 -23 5 0 11 7 15 15 3 8 4 15 3 14 -1
0 -8 -3 -14 -6z"/>
<path d="M3741 2845 c-1 -30 14 -144 25 -197 3 -17 12 -28 22 -28 13 0 14 2 4
9 -7 4 -17 43 -22 92 -6 46 -14 100 -19 119 l-9 35 -1 -30z"/>
<path d="M3778 2588 c6 -7 15 -29 20 -48 9 -29 10 -31 11 -10 1 40 -10 70 -26
70 -11 0 -13 -3 -5 -12z"/>
<path d="M3143 1345 c0 -27 2 -38 4 -22 2 15 2 37 0 50 -2 12 -4 0 -4 -28z"/>
<path d="M3142 1265 c0 -16 2 -22 5 -12 2 9 2 23 0 30 -3 6 -5 -1 -5 -18z"/>
<path d="M3137 1163 c-3 -38 -9 -76 -12 -85 -5 -13 -2 -18 9 -18 13 0 16 14
16 85 0 47 -2 85 -4 85 -2 0 -6 -30 -9 -67z"/>
<path d="M5578 2143 c7 -3 16 -2 19 1 4 3 -2 6 -13 5 -11 0 -14 -3 -6 -6z"/>
<path d="M6071 1994 c0 -11 3 -14 6 -6 3 7 2 16 -1 19 -3 4 -6 -2 -5 -13z"/>
<path d="M2526 1415 c3 -8 10 -13 14 -10 5 3 11 -1 13 -7 4 -10 6 -10 6 -1 1
7 -8 17 -19 23 -16 9 -18 8 -14 -5z"/>
<path d="M2487 1393 c-13 -12 -7 -54 8 -60 17 -6 55 23 55 41 0 6 -5 3 -11 -6
-15 -26 -27 -22 -21 7 4 24 -14 35 -31 18z"/>
<path d="M2715 1297 c-3 -7 6 -33 19 -58 28 -47 36 -47 11 1 -8 16 -12 35 -9
43 3 8 1 18 -5 22 -6 3 -14 0 -16 -8z"/>
<path d="M1561 1114 c0 -11 3 -14 6 -6 3 7 2 16 -1 19 -3 4 -6 -2 -5 -13z"/>
<path d="M1810 1231 c0 -5 5 -13 10 -16 6 -3 10 -2 10 4 0 5 -4 13 -10 16 -5
3 -10 2 -10 -4z"/>
<path d="M1791 1143 c0 -29 2 -33 8 -18 7 18 4 55 -5 55 -2 0 -4 -17 -3 -37z"/>
<path d="M4718 988 c25 -28 30 -47 6 -28 -13 12 -14 10 -3 -13 11 -24 13 -25
25 -9 15 20 3 46 -29 63 l-22 12 23 -25z"/>
<path d="M5255 920 c-3 -5 -1 -10 4 -10 6 0 11 5 11 10 0 6 -2 10 -4 10 -3 0
-8 -4 -11 -10z"/>
<path d="M4416 621 c-3 -5 1 -11 9 -14 9 -4 12 -1 8 9 -6 16 -10 17 -17 5z"/>
<path d="M4404 1013 c-12 -2 -26 -15 -33 -29 -16 -35 -14 -49 4 -34 8 6 19 9
25 5 14 -9 13 8 -2 23 -9 9 -7 12 8 12 12 0 21 7 21 15 0 8 -1 14 -1 14 -1 -1
-11 -4 -22 -6z"/>
<path d="M1928 803 c6 -2 18 -2 25 0 6 3 1 5 -13 5 -14 0 -19 -2 -12 -5z"/>
<path d="M1361 684 c0 -11 3 -14 6 -6 3 7 2 16 -1 19 -3 4 -6 -2 -5 -13z"/>
<path d="M1085 610 c-3 -5 -1 -10 4 -10 6 0 11 5 11 10 0 6 -2 10 -4 10 -3 0
-8 -4 -11 -10z"/>
<path d="M4724 500 c-24 -9 -39 -28 -31 -37 3 -3 16 2 29 11 15 11 44 16 88
16 46 0 61 3 50 10 -18 12 -107 12 -136 0z"/>
<path d="M808 463 c7 -3 16 -2 19 1 4 3 -2 6 -13 5 -11 0 -14 -3 -6 -6z"/>
<path d="M4949 447 c-14 -18 -29 -22 -98 -25 -44 -2 -81 -8 -81 -13 0 -12 106
-11 151 1 41 12 67 36 53 50 -5 5 -16 -1 -25 -13z"/>
<path d="M590 379 c0 -5 5 -7 10 -4 6 3 10 8 10 11 0 2 -4 4 -10 4 -5 0 -10
-5 -10 -11z"/>
<path d="M210 146 c0 -2 7 -9 15 -16 12 -10 15 -10 15 4 0 9 -7 16 -15 16 -8
0 -15 -2 -15 -4z"/>
<path d="M18 33 c12 -2 30 -2 40 0 9 3 -1 5 -23 4 -22 0 -30 -2 -17 -4z"/>
</g>
</svg>
